<?xml version="1.0" encoding="UTF-8" standalone="no"?>
<!-- Created with Inkscape (http://www.inkscape.org/) -->

<svg
   version="1.1"
   id="svg2"
   width="297mm"
   height="210mm"
   viewBox="0 0 1122.5197 793.7008"
   sodipodi:docname="Panel.svg"
   inkscape:version="1.2 (dc2aedaf03, 2022-05-15)"
   xmlns:inkscape="http://www.inkscape.org/namespaces/inkscape"
   xmlns:sodipodi="http://sodipodi.sourceforge.net/DTD/sodipodi-0.dtd"
   xmlns="http://www.w3.org/2000/svg"
   xmlns:svg="http://www.w3.org/2000/svg">
  <defs
     id="defs6" />
  <sodipodi:namedview
     id="namedview4"
     pagecolor="#ffffff"
     bordercolor="#666666"
     borderopacity="1.0"
     inkscape:showpageshadow="2"
     inkscape:pageopacity="0.0"
     inkscape:pagecheckerboard="0"
     inkscape:deskcolor="#d1d1d1"
     showgrid="false"
     inkscape:zoom="0.29714602"
     inkscape:cx="72.354999"
     inkscape:cy="476.19685"
     inkscape:window-width="1920"
     inkscape:window-height="1001"
     inkscape:window-x="-9"
     inkscape:window-y="-9"
     inkscape:window-maximized="1"
     inkscape:current-layer="g8"
     inkscape:document-units="mm" />
  <g
     inkscape:groupmode="layer"
     inkscape:label="Image"
     id="g8">
    <path
       style="fill:none;stroke:#000000;stroke-width:0.32;stroke-opacity:1"
       d="m 1.0329143,677.89041 c 0.154,0 0.5195,1.30979 0.8124,2.91063 0.2929,1.60085 1.0428,4.44485 1.6666,6.32 1.1142,3.34985 4.4114,10.02414 6.0228,12.19154 0.4507,0.6062 0.8193997,1.39926 0.8193997,1.76236 0,1.04157 4.4371,5.94394 8,8.83885 2.5521,2.0736 4.3097,3.24059 7.2,4.7805 4.761,2.53658 8.2887,3.51863 22.4,6.23566 4.048,0.77941 8.008,1.55864 8.8,1.73161 0.792,0.17297 1.944,0.40063 2.56,0.5059 0.616,0.10528 2.056,0.39429 3.2,0.64225 1.144,0.24796 3.736,0.75824 5.76,1.13396 7.4378,1.3807 15.255,2.90076 17.28,3.36014 1.144,0.25951 3.304,0.68425 4.8,0.94386 1.496,0.25961 3.8,0.69303 5.12,0.96315 1.32,0.27012 3.552,0.69833 4.959996,0.95159 6.3135,1.13558 7.9212,1.44331 11.68,2.2357 2.2,0.46378 5.224,1.05375 6.72,1.31106 1.496,0.2573 3.296,0.60558 4.00001,0.77396 1.0504,0.25122 9.23731,1.89691 12.32,2.4765 6.42957,1.20886 24.81485,4.80357 26.56,5.19304 0.792,0.17675 3.096,0.62048 5.12,0.98607 2.024,0.36558 4.5801,0.88001 5.68022,1.14318 1.10016,0.26317 3.11616,0.68141 4.48,0.92944 1.36388,0.24802 5.28778,1.02292 8.71978,1.722 3.432,0.69907 7.104,1.42597 8.16,1.61532 1.056,0.18935 2.208,0.41294 2.56,0.49686 1.50739,0.35941 3.83328,0.83823 8.64,1.77866 2.816,0.55095 6.488,1.2789 8.16,1.61767 1.672,0.33877 3.472,0.69359 4,0.7885 0.528,0.0949 2.688,0.53211 4.8,0.97156 2.112,0.43944 4.992,0.99964 6.4,1.24487 1.408,0.24524 3.98224,0.74286 5.72051,1.10584 3.73107,0.77909 4.06512,0.84426 7.39949,1.44351 1.408,0.25304 3.28,0.61517 4.16,0.80473 2.51478,0.54171 14.24352,2.89879 15.84,3.18331 0.792,0.14114 5.47199,1.10479 10.39999,2.14143 l 8.96,1.88479 94.56,-0.0136 c 191.39472,-0.0275 453.15327,-0.29795 459.68,-0.47498 4.79089,-0.12995 7.36304,-0.34219 8.96,-0.73935 1.232,-0.30639 4.76,-1.04654 7.84,-1.64478 3.08,-0.59824 9.848,-1.94832 15.04,-3.00017 5.192,-1.05186 12.464,-2.50504 16.16,-3.22929 3.696,-0.72426 7.656,-1.51622 8.8,-1.75993 1.144,-0.2437 3.592,-0.74236 5.44,-1.10812 1.848,-0.36577 5.52,-1.11675 8.16,-1.66885 2.64,-0.5521 5.808,-1.19224 7.04,-1.42253 4.20095,-0.78529 7.35715,-1.41198 10.4,-2.06502 1.672,-0.35883 3.832,-0.80107 4.8,-0.98275 4.67121,-0.87673 24.69735,-4.97699 27.2,-5.56908 1.99026,-0.47087 24.1767,-4.89041 36.96,-7.36244 3.344,-0.64666 7.304,-1.4475 8.79989,-1.77965 1.496,-0.33215 5.456,-1.11446 8.8,-1.73847 9.2854,-1.73272 18.9533,-3.60474 24.8,-4.80208 2.904,-0.59471 6.576,-1.31364 8.16,-1.59763 1.584,-0.28398 3.384,-0.64685 4,-0.80637 1.1892,-0.30793 11.0147,-2.29317 15.0401,-3.03881 1.32,-0.24452 5.496,-1.08568 9.28,-1.86925 3.784,-0.78357 9.112,-1.88691 11.84,-2.45187 11.015,-2.28113 15.4657,-4.17007 22.24,-9.4388 6.8737,-5.346 13.2977,-14.59235 16.1187,-23.20026 l 0.683,-2.08406 -0.081,-310.71594 -0.081,-310.715941 -1.0479,-3.25936 c -3.3398,-10.38816 -7.3027,-17.65325 -13.1362,-24.08246 -1.2628,-1.39165 -2.2959,-2.74858 -2.2959,-3.01536 0,-0.61616 -0.5304,-0.95908 -0.8025,-0.51882 -0.1237,0.20022 -0.8068,-0.15926 -1.7021,-0.89578 -0.8225,-0.67664 -2.2536,-1.68876 -3.1802,-2.24921 l -1.6848,-1.01901 H 564.10931 c -355.51679,0 -533.595196,0.10678 -533.595196,0.32 0,0.176 -0.1983,0.32 -0.4406,0.32 -1.6428,0 -9.4794,4.07926 -9.4794,4.9344 0,0.21837 -0.7191,1.17747 -1.598,2.13133 -0.879,0.95385 -1.599,1.91427 -1.6,2.13427 0,0.22 -0.264,0.4 -0.5843,0.4 -0.6007,0 -1.1413,0.5263 -2.7831,2.70944 -0.525,0.69821 -1.2156,1.53517 -1.5345,1.8599 -0.3189,0.32477 -0.8435,1.20544 -1.1657,1.95706 -0.3222,0.75162 -0.9391,1.74784 -1.3709997,2.21382 -0.4318,0.46602 -1.3933,2.10282 -2.1365,3.63738 -3.3467,6.91018 -5.6851,14.44554 -6.4939,20.92662 -0.45820003,3.6713 -0.75060003,607.655781 -0.2942,607.655781 z M 157.78673,553.01373 c 1.42073,-2.61033 3.93411,-4.08332 6.96739,-4.08332 3.09667,0 5.54483,1.4712 7.05325,4.23861 2.27933,4.18176 0.38147,9.39892 -4.10019,11.27149 -1.35271,0.56519 -4.25927,0.64449 -5.57223,0.15202 -2.47097,-0.92681 -4.60502,-3.30453 -5.24905,-5.84835 -0.39984,-1.57934 -0.0106,-4.056 0.90083,-5.73045 z m -0.52906,-318.32332 c 0.96343,-4.23104 5.272,-7.00256 9.44704,-6.0769 6.85107,1.51904 8.66314,10.26458 2.97984,14.38154 -4.40886,3.19376 -10.90265,0.87152 -12.32403,-4.40723 -0.50141,-1.86215 -0.50816,-2.11751 -0.10285,-3.89741 z m 23.99389,156.11392 c 0.73146,-7.18349 2.55514,-13.34582 5.95056,-20.10733 8.59018,-17.10601 25.13958,-28.66112 44.25069,-30.89664 11.59561,-1.35641 22.09187,0.5137 32.65472,5.81805 20.67903,10.38448 33.06732,32.50739 31.10773,55.552 -0.68649,8.07302 -2.39021,14.10694 -6.02915,21.35341 -10.38448,20.67904 -32.50738,33.06733 -55.55199,31.10774 -8.07302,-0.68649 -14.10694,-2.39021 -21.35341,-6.02915 -11.08208,-5.56512 -19.61251,-14.12842 -25.13513,-25.232 -1.31309,-2.64 -2.80906,-6.11056 -3.32445,-7.71235 -2.51136,-7.80557 -3.38131,-15.88163 -2.56957,-23.85373 z m 60.80611,292.52608 c 0.96343,-4.23103 5.272,-7.00257 9.44704,-6.07689 6.85107,1.51902 8.66314,10.26456 2.97984,14.38152 -4.40886,3.19378 -10.90265,0.87152 -12.32403,-4.40721 -0.50141,-1.86216 -0.50816,-2.11751 -0.10285,-3.89742 z m 0.32234,-600.960001 c 0.87536,-1.93379 2.0511,-3.12826 3.97411,-4.03734 5.26109,-2.4872 11.35376,1.39651 11.35376,7.23734 0,4.4329 -3.55654,7.98595 -7.99376,7.98595 -1.99459,0 -4.13878,-0.83478 -5.56048,-2.16483 -2.29619,-2.14816 -3.08003,-6.13507 -1.77363,-9.02112 z m 62.28671,149.683331 c 1.42073,-2.61034 3.93411,-4.08333 6.96739,-4.08333 3.09667,0 5.54483,1.4712 7.05325,4.23862 2.28288,4.18829 0.35945,9.40813 -4.16311,11.29776 -1.29856,0.54256 -4.22019,0.60925 -5.50931,0.12573 -2.47097,-0.92681 -4.60502,-3.30451 -5.24905,-5.84835 -0.39984,-1.57933 -0.0106,-4.056 0.90083,-5.73043 z m -0.089,321.18652 c 0.76713,-1.836 1.99996,-3.19559 3.775,-4.16309 5.3084,-2.89341 11.76139,0.97641 11.76139,7.05324 0,3.13446 -1.42493,5.51967 -4.20154,7.03305 -4.19529,2.28664 -9.3654,0.42756 -11.32035,-4.0706 -0.59251,-1.36335 -0.60016,-4.45088 -0.0144,-5.8526 z M 450.9639,184.75905 c 3.75773,-18.84957 18.47837,-33.32502 37.63021,-37.00349 2.02832,-0.38957 4.48874,-0.55315 8.32,-0.55315 3.83126,0 6.29168,0.16358 8.32,0.55315 19.38346,3.72295 34.07331,18.36407 37.78022,37.65485 0.80983,4.21437 0.80983,12.74563 0,16.96 -3.70691,19.29078 -18.39676,33.9319 -37.78022,37.65485 -2.02832,0.38957 -4.48874,0.55315 -8.32,0.55315 -6.06518,0 -9.10618,-0.44544 -14.35776,-2.10301 -7.82733,-2.47059 -16.15562,-7.97392 -21.1433,-13.97142 -6.43664,-7.73984 -9.96278,-16.02592 -11.18921,-26.29357 -0.29085,-2.43498 0.15331,-10.50816 0.74006,-13.45136 z m 28.34583,350.9315 c 3.79529,-28.51747 28.13148,-49.78764 56.96438,-49.78764 31.82269,0 57.42752,25.6048 57.42752,57.4275 0,31.8227 -25.60483,57.4275 -57.42752,57.4275 -26.28093,0 -49.10752,-17.67627 -55.67661,-43.11445 -1.71933,-6.65791 -2.21005,-15.02307 -1.28777,-21.95291 z m 40.49808,-156.84014 c 2.42668,-25.64019 20.57516,-45.84989 46.04761,-51.27741 3.67914,-0.78393 4.62704,-0.85629 11.21869,-0.85629 6.59165,0 7.53955,0.0724 11.21869,0.85629 18.00038,3.83543 32.73753,15.19783 40.50921,31.2328 7.68218,15.85034 7.68218,34.47888 0,50.32922 -7.86918,16.23616 -22.91312,27.69907 -41.1679,31.36841 -3.16355,0.63591 -4.64554,0.73972 -10.56,0.73972 -5.91446,0 -7.39645,-0.10381 -10.56,-0.73972 -27.34714,-5.49699 -46.46093,-28.22921 -46.99613,-55.89302 -0.0237,-1.232 0.10659,-3.824 0.28983,-5.76 z m 61.56675,-193.84282 c 1.08953,-6.06134 3.7391,-12.56601 7.30441,-17.93241 2.61165,-3.93095 8.41172,-9.71946 12.37808,-12.35344 5.34573,-3.54999 10.95648,-5.95287 16.98567,-7.27434 3.89321,-0.85331 14.96733,-0.85382 18.85843,0 9.25606,2.02896 17.0113,6.27459 23.71229,12.98138 6.9248,6.93075 11.23408,15.1304 13.00781,24.75097 0.74144,4.02151 0.74144,12.4416 0,16.46311 -1.77373,9.62057 -6.08301,17.82022 -13.00781,24.75097 -6.70013,6.70589 -14.44615,10.94695 -23.71229,12.98272 -2.16128,0.47485 -4.06182,0.59476 -9.42704,0.59476 -5.36522,0 -7.26576,-0.11991 -9.42704,-0.59476 -9.26614,-2.03577 -17.01216,-6.27683 -23.71229,-12.98272 -7.85043,-7.85721 -12.0336,-16.66316 -13.53977,-28.50252 -0.27588,-2.16829 0.0815,-10.11216 0.57955,-12.88282 z m 49.80169,296.08282 c 1.82791,-19.7872 13.52724,-37.11485 31.08365,-46.03754 16.65408,-8.46409 35.69434,-8.46409 52.34842,0 10.87081,5.52487 19.69277,14.36864 25.01574,25.07754 2.58679,5.20419 3.79402,8.5408 4.92976,13.62516 1.82435,8.16702 1.82435,16.74266 0,24.90968 -2.39126,10.70484 -7.77568,20.53529 -15.45264,28.21225 -5.89331,5.89331 -14.09209,11.04023 -21.81222,13.69294 -14.82397,5.09365 -30.96403,3.94576 -45.02906,-3.2025 -18.92141,-9.61642 -30.9448,-28.97153 -31.38144,-50.51753 -0.023,-1.144 0.11082,-3.736 0.29779,-5.76 z m 34.56,-154.56 c 1.82791,-19.7872 13.52724,-37.11485 31.08365,-46.03754 16.65408,-8.46409 35.69434,-8.46409 52.34842,0 10.87081,5.52487 19.69277,14.36864 25.01574,25.07754 2.58679,5.20419 3.79402,8.5408 4.92976,13.62515 1.82435,8.16704 1.82435,16.74266 0,24.9097 -2.39126,10.70483 -7.77568,20.53529 -15.45264,28.21222 -5.89331,5.89335 -14.09209,11.04026 -21.81222,13.69296 -7.28119,2.50189 -15.93952,3.6049 -23.25485,2.9625 -8.00378,-0.70285 -14.19866,-2.43434 -21.41277,-5.9849 -18.97366,-9.33821 -31.30377,-29.03107 -31.74288,-50.69763 -0.023,-1.144 0.11082,-3.736 0.29779,-5.76 z m 122.88,174.72 c 1.82791,-19.78719 13.52724,-37.11485 31.08366,-46.03754 16.65408,-8.46409 35.69432,-8.46409 52.3484,0 10.87081,5.52487 19.69278,14.36864 25.01574,25.07754 3.6843,7.41219 5.41782,13.54056 6.13258,21.68 0.46837,5.33364 0.0447,11.27002 -1.20281,16.85484 -2.39126,10.70484 -7.77567,20.53529 -15.45262,28.21225 -5.89332,5.89331 -14.09212,11.04023 -21.81225,13.69294 -14.82395,5.09365 -30.96402,3.94576 -45.02904,-3.2025 -18.92142,-9.61642 -30.94481,-28.97153 -31.38145,-50.51753 -0.023,-1.144 0.11082,-3.736 0.29779,-5.76 z m 24,-156.48 c 1.82792,-19.7872 13.52722,-37.11485 31.08366,-46.03754 16.65408,-8.46409 35.69432,-8.46409 52.3484,0 10.87081,5.52487 19.69278,14.36864 25.01574,25.07754 3.6843,7.41219 5.41782,13.54054 6.13258,21.68 0.46837,5.33363 0.0447,11.27002 -1.20281,16.85485 -2.39126,10.70483 -7.77567,20.53529 -15.45262,28.21222 -5.89332,5.89335 -14.09212,11.04026 -21.81225,13.69296 -7.28117,2.50189 -15.93952,3.6049 -23.25484,2.9625 -8.00378,-0.70285 -14.19865,-2.43434 -21.41278,-5.9849 -18.97366,-9.33821 -31.30378,-29.03107 -31.74288,-50.69763 -0.0232,-1.144 0.11083,-3.736 0.2978,-5.76 z m 53.56148,336.46985 c 0.76713,-1.836 1.99998,-3.19559 3.77499,-4.16309 5.3084,-2.89341 11.76139,0.97641 11.76139,7.05324 0,3.13446 -1.42492,5.51967 -4.20152,7.03305 -4.19532,2.28664 -9.36543,0.42756 -11.32037,-4.0706 -0.59253,-1.36335 -0.60017,-4.45088 -0.0145,-5.8526 z m 0,-599.359991 c 0.76713,-1.836 1.99998,-3.19559 3.77499,-4.16311 5.3084,-2.89341 11.76139,0.97642 11.76139,7.05325 0,3.13446 -1.42492,5.51968 -4.20152,7.03306 -4.19532,2.28662 -9.36543,0.42755 -11.32037,-4.07063 -0.59253,-1.36333 -0.60017,-4.45085 -0.0145,-5.85257 z M 182.213,762.37041 c 0.3624,0 0.57379,-0.13771 0.46976,-0.30602 -0.10403,-0.16831 -0.40051,-0.22491 -0.65888,-0.12576 -0.66147,0.25383 -0.58352,0.43178 0.18912,0.43178 z"
       id="path239" />
  </g>
</svg>
