<?xml version="1.0" encoding="UTF-8" standalone="no"?>
<svg
   version="1.0"
   width="735.06604"
   height="1114.9606"
   viewBox="0 0 735.06604 1114.9606"
   preserveAspectRatio="xMidYMid"
   id="svg40"
   sodipodi:docname="Panel.svg"
   inkscape:version="1.2 (dc2aedaf03, 2022-05-15)"
   xmlns:inkscape="http://www.inkscape.org/namespaces/inkscape"
   xmlns:sodipodi="http://sodipodi.sourceforge.net/DTD/sodipodi-0.dtd"
   xmlns="http://www.w3.org/2000/svg"
   xmlns:svg="http://www.w3.org/2000/svg">
  <defs
     id="defs44" />
  <sodipodi:namedview
     id="namedview42"
     pagecolor="#ffffff"
     bordercolor="#666666"
     borderopacity="1.0"
     inkscape:showpageshadow="2"
     inkscape:pageopacity="0.0"
     inkscape:pagecheckerboard="0"
     inkscape:deskcolor="#d1d1d1"
     showgrid="false"
     inkscape:zoom="0.63602554"
     inkscape:cx="963.01164"
     inkscape:cy="794.77941"
     inkscape:window-width="1920"
     inkscape:window-height="1001"
     inkscape:window-x="-9"
     inkscape:window-y="-9"
     inkscape:window-maximized="1"
     inkscape:current-layer="svg40" />
  <g
     fill="#000000"
     id="g38"
     transform="matrix(0.31897652,0,0,0.31897652,-73.973845,-111.59713)"
     style="fill:#00ff00;fill-opacity:1">
    <path
       d="m 1082.61,3844.61 c -446.04,-1 -575.79,-1.8 -582.79,-3.6 -15.59,-4.4 -28.99,-9.4 -31.59,-11.8 -1.4,-1.4 -3.8,-2.6 -5.2,-2.6 -1.2,0 -3.6,-1.8 -5.2,-4 -1.6,-2.2 -3.8,-4 -5,-4 -5,0 -34.39,-21.19 -46.78,-33.79 -14.79,-14.99 -24.19,-29.59 -30.39,-47.18 -3.8,-10.8 -13.99,-60.38 -35.79,-171.94 -4.4,-22.99 -26.79,-137.35 -49.78,-253.91 -22.99,-116.56 -42.98,-219.12 -44.18,-227.92 -2.6,-18.99 -9.4,-48.58 -12,-53.38 -1.4,-2.2 -2,-344.08 -2,-944.66 0.2,-824.5 0.4,-941.66 3,-945.06 1.8,-2.2 3,-8.2 3,-13.8 0,-5.2 1,-11.4 2.2,-13.8 1.2,-2.2 3.4,-12.2 4.8,-22.19 2.6,-16.99 24.99,-129.95 38.99,-196.33 7.4,-35.59 27.39,-134.55 36.99,-183.93 10.6,-54.58 20.59,-104.36 39.99,-199.93 15.39,-76.57 17.59,-85.37 24.99,-100.36 4.4,-8.8 8,-17.39 8,-18.99 0,-1.4 8.6,-11.4 19.19,-22.19 l 19.19,-19.39 h 1021.43 c 608.38,0 1021.43,0.8 1021.43,1.8 0,1 6.2,6.4 13.99,12.2 28.19,20.79 42.58,41.58 46.18,66.58 1,7 1.4,81.77 0.8,172.34 -0.6,87.97 -1.4,647.17 -2,1242.55 -1,1294.53 -2.6,1882.92 -4.8,1888.32 -10.4,24.99 -16.99,35.39 -30.79,48.18 -13.8,12.8 -33.19,26.79 -37.19,26.79 -1,0 -2.2,0.8 -2.6,1.6 -0.8,2 -33.19,20.39 -35.79,20.39 -1,0 -6.8,2.2 -13,5 -8.4,3.6 -17.39,5.6 -33.59,7 -29.99,2.6 -591.19,3.4 -1293.73,2 z m 1292.53,-6 c 25.19,-2.4 41.78,-8.6 74.97,-27.39 4.4,-2.4 9.2,-5.2 10.8,-5.8 15.99,-7.8 47.78,-36.59 54.38,-49.18 2,-4 5.6,-12.2 7.6,-17.99 3.8,-10.4 4,-21.99 5.2,-442.44 0.6,-237.51 1.6,-935.26 2.2,-1550.44 0.6,-615.18 1.4,-1163.98 1.4,-1219.56 0.4,-98.56 0.4,-101.16 -3.8,-111.36 -8,-19.39 -21.79,-34.59 -47.18,-51.98 l -9.4,-6.6 -1019.03,-0.4 -1019.03,-0.6 -15.79,15.79 c -12.6,12.8 -17.39,19.39 -24.39,33.99 -4.8,10 -9.6,21.39 -10.8,25.19 -3.2,10.2 -23.39,110.16 -72.17,355.87 -6.6,33.59 -21.59,107.36 -33.19,163.94 -23.19,113.56 -23.99,117.16 -27.59,142.95 -1.6,10 -3.8,19.99 -5,22.39 -1.4,2.4 -2.4,9.2 -2.4,15.19 0,7.2 -1,11.8 -3,13.4 -2.6,2.2 -3,108.36 -2.4,943.46 l 0.4,940.86 5.2,18.99 c 3,10.4 6.4,26.59 7.8,35.99 2.4,17.79 23.39,126.95 34.99,183.93 7.8,37.39 46.58,233.92 53.98,271.9 23.79,124.95 35.79,183.33 40.19,195.93 7.2,20.39 16.19,34.79 31.19,49.38 12,11.4 38.99,30.59 43.18,30.59 1,0 3,1.2 4.2,2.8 2.8,3.4 23.99,13.8 35.19,17.39 4.4,1.4 15.59,3 24.99,3.8 28.19,2.2 1833.34,2.2 1857.33,0 z"
       id="path2"
       style="fill:#00ff00;fill-opacity:1" />
    <path
       d="m 859.69,3348.39 c -22.39,-11.4 -23.99,-40.99 -3.2,-56.38 4.2,-3.2 8.4,-4.2 18.19,-4.2 9.8,0 13.99,1 18.19,4.2 14.59,10.8 18.59,27.19 10.4,42.78 -5.2,10 -17.79,17.99 -28.59,17.99 -3.4,0 -10.2,-2 -14.99,-4.4 z m 27.99,-4 c 20.59,-10.4 21.19,-37.39 1.6,-49.78 -9.2,-5.6 -25.59,-4.4 -32.79,2.4 -11.2,10.4 -13.8,23.19 -7.2,35.79 3.8,7.2 17.59,15.99 25.39,15.99 2.2,0 8.2,-2 13,-4.4 z"
       id="path4"
       style="fill:#00ff00;fill-opacity:1" />
    <path
       d="m 1858.33,3346.39 c -9,-5.2 -16.99,-18.59 -16.99,-28.59 0,-10.8 8,-23.39 17.99,-28.59 15.59,-8.2 31.99,-4.2 42.78,10.4 3.2,4.2 4.2,8.4 4.2,18.19 0,13.6 -3,19.79 -13.6,27.79 -8.2,6 -24.39,6.4 -34.39,0.8 z m 28.59,-2.4 c 3,-1.6 7.6,-5.2 10.4,-8.2 4.2,-4.6 5,-7.2 5,-17.99 0,-10.8 -0.8,-13.4 -5,-17.99 -7.8,-8.4 -15.59,-11.6 -25.19,-10.4 -22.39,2.4 -33.59,27.39 -20.39,45.98 7.4,10.4 23.99,14.39 35.19,8.6 z"
       id="path6"
       style="fill:#00ff00;fill-opacity:1" />
    <path
       d="m 1346.51,3271.62 c -27.19,-5.6 -48.38,-13 -65.98,-23.19 -2.2,-1.2 -6.4,-3.6 -9.4,-5 -8.2,-4.2 -32.39,-27.39 -42.78,-41.19 -11.8,-15.59 -24.99,-42.78 -31.99,-66.38 -7,-24.19 -8.8,-62.58 -4,-86.77 15.19,-74.97 74.57,-132.15 149.95,-144.35 21.19,-3.4 59.98,-1.4 79.17,4 21.39,6.2 52.78,22.19 68.38,34.99 43.18,35.59 69.77,90.17 69.97,143.75 0.2,11.8 -0.8,24.79 -2,28.99 -1.2,4 -3.6,13.2 -5.4,20.39 -12.4,48.58 -47.98,94.37 -90.17,115.56 -12,6 -35.79,14.19 -51.38,17.39 -12.6,2.8 -54.18,3.8 -64.38,1.8 z m 64.18,-6 c 74.37,-15.19 124.36,-67.18 142.55,-147.75 5.6,-25.79 2,-60.58 -10,-92.97 -17.39,-46.98 -56.78,-86.97 -103.96,-105.76 -44.98,-17.79 -105.16,-15.59 -146.35,5 -44.18,22.19 -76.37,59.38 -90.97,104.76 -16.59,51.78 -7.8,114.16 22.99,160.34 10.8,16.59 35.79,42.58 47.58,49.98 14.59,9.2 45.78,21.99 61.98,25.59 20.79,4.8 55.38,5 76.17,0.8 z"
       id="path8"
       style="fill:#00ff00;fill-opacity:1" />
    <path
       d="m 2332.16,3084.09 c -29.19,-12.8 -22.79,-58.38 8.6,-62.58 18.79,-2.6 35.79,10.8 37.79,29.79 2.4,23.79 -23.99,42.58 -46.38,32.79 z m 29.99,-6 c 7.6,-5 13.8,-19.79 12,-28.79 -5,-26.79 -38.59,-33.19 -53.18,-10 -6,9.8 -4.4,25.59 3.4,33.79 3.2,3.4 7.6,7 9.8,8 6,2.6 21.99,0.8 27.99,-3 z"
       id="path10"
       style="fill:#00ff00;fill-opacity:1" />
    <path
       d="m 455.64,3078.09 c -18.39,-12.6 -18.39,-41.78 0,-54.38 12.8,-8.6 32.79,-6 43.58,5.6 13.8,14.99 8.8,40.99 -9.8,50.78 -8.8,4.6 -25.39,3.6 -33.79,-2 z m 37.19,-5.4 c 3.8,-3.4 8,-9.6 9.2,-13.99 3.2,-10.6 -0.2,-21.59 -9.2,-29.59 -6,-5.2 -8.8,-6.2 -17.19,-6.2 -18.19,0 -29.79,10.6 -29.79,27.59 0,17.59 11,28.39 29.39,28.39 8.8,0 11.6,-1 17.59,-6.2 z"
       id="path12"
       style="fill:#00ff00;fill-opacity:1" />
    <path
       d="m 859.89,2889.16 c -15.19,-8.2 -21.19,-31.99 -11.6,-46.38 5.2,-7.8 19.39,-15.79 28.59,-15.79 3.4,0 10,2 14.79,4.6 10,5.2 17.99,17.99 17.99,28.19 0,9.2 -8,23.39 -15.79,28.59 -8.4,5.8 -24.19,6 -33.99,0.8 z m 31.19,-4.2 c 13.6,-8.2 17.59,-22.39 10.6,-37.19 -5.6,-11.2 -17.79,-17.99 -29.39,-16.19 -26.59,4.4 -33.79,38.79 -11.4,53.58 7.6,5 21.79,5 30.19,-0.2 z"
       id="path14"
       style="fill:#00ff00;fill-opacity:1" />
    <path
       d="m 1861.33,2886.56 c -22.39,-11.4 -23.99,-40.99 -3.2,-56.38 4.2,-3.2 8.4,-4.2 18.19,-4.2 9.8,0 13.99,1 18.19,4.2 14.59,10.8 18.59,27.19 10.4,42.78 -5.2,10 -17.79,17.99 -28.59,17.99 -3.4,0 -10.2,-2 -14.99,-4.4 z m 27.99,-4 c 11.4,-6 16.59,-15.19 15.39,-28.19 -2.4,-27.39 -38.59,-34.79 -53.58,-11 -8,13 -1.8,33.19 12.6,40.19 9,4.4 15.19,4.2 25.59,-1 z"
       id="path16"
       style="fill:#00ff00;fill-opacity:1" />
    <path
       d="m 1965.29,2427.32 c -57.58,-15.79 -97.96,-57.18 -111.16,-113.56 -4,-17.79 -4,-50.58 0.4,-67.98 7.6,-31.19 27.19,-62.78 50.58,-81.37 17.99,-14.39 27.79,-19.79 50.18,-27.39 17.79,-6.2 20.59,-6.6 45.98,-6.6 24.79,0 28.59,0.6 45.58,6.2 25.39,8.4 44.38,20.19 62.38,38.39 17.59,17.99 30.59,39.59 37.59,62.98 4,13.2 5,20.99 5.2,41.19 0,14.99 -1,29.39 -2.6,35.99 -3.2,12.8 -13.99,39.99 -15.79,39.99 -0.8,0 -2.6,2.4 -4,5.6 -1.2,3 -5.4,9 -8.8,13.4 -22.59,27.79 -48.98,44.98 -80.37,52.98 -20.79,5.2 -56.38,5.4 -75.17,0.2 z m 74.37,-4 c 57.98,-14.79 100.36,-63.98 107.76,-124.95 9,-73.17 -35.39,-138.95 -107.56,-159.54 -20.19,-5.8 -54.98,-6.2 -74.57,-0.8 -65.98,17.79 -109.96,74.37 -110.16,141.35 0,26.79 3.8,43.58 14.99,66.78 18.39,37.99 53.18,65.78 96.17,76.97 19.59,5.2 53.38,5.2 73.37,0.2 z"
       id="path18"
       style="fill:#00ff00;fill-opacity:1" />
    <path
       d="m 901.67,2343.15 c -72.57,-7 -135.35,-59.98 -156.34,-131.95 -8.6,-29.79 -8.4,-74.17 0.8,-103.56 15.79,-51.18 55.58,-94.77 104.16,-114.36 25.39,-10.2 39.59,-12.8 69.37,-12.8 39.99,0 69.18,8.6 101.16,29.79 38.79,25.79 65.18,65.18 76.97,114.36 5.6,22.99 4.6,63.38 -2,86.17 -21.19,73.17 -81.37,123.76 -156.74,132.15 -10.6,1.2 -19.99,2 -20.79,2 -0.8,-0.2 -8.4,-1 -16.59,-1.8 z m 66.38,-9.6 c 66.98,-18.59 116.56,-73.97 127.75,-143.15 3.2,-19.99 1.4,-53.58 -4,-74.17 -21.39,-81.37 -97.56,-136.95 -181.13,-132.35 -79.97,4.6 -144.95,58.18 -163.14,134.75 -5.2,21.79 -5.6,58.58 -1,79.97 16.79,77.37 80.57,134.35 156.94,140.15 22.59,1.8 45.58,0 64.58,-5.2 z"
       id="path20"
       style="fill:#00ff00;fill-opacity:1" />
    <path
       d="m 1388.5,2213.8 c -60.38,-9.4 -114.36,-50.98 -138.35,-106.56 -11.6,-26.99 -13.6,-37.59 -13.6,-72.97 0,-35.39 2,-45.98 13.6,-72.97 21.79,-50.38 65.38,-87.17 121.56,-102.36 21.39,-5.8 63.18,-6.2 84.17,-1 35.19,8.8 63.38,24.39 87.97,48.38 23.99,23.79 39.99,52.78 48.98,88.57 4.8,18.79 4.6,62.58 -0.2,80.37 -18.39,67.78 -62.38,113.96 -126.55,133.15 -14.39,4.4 -22.39,5.4 -44.58,5.8 -14.79,0.4 -29.59,0.2 -32.99,-0.4 z m 74.97,-8.6 c 44.78,-12.6 85.57,-45.18 108.16,-85.97 14.79,-26.79 23.19,-64.58 20.99,-95.17 -5.4,-79.37 -58.98,-142.75 -136.55,-162.14 -18.39,-4.6 -60.58,-4.6 -78.97,0 -37.19,9.2 -61.78,23.19 -87.57,49.38 -33.99,34.59 -49.98,73.77 -49.98,122.76 0,24.39 3.6,45.58 11.2,64.58 21.79,55.58 68.78,95.77 126.75,108.76 22.79,5.2 63.98,4 85.97,-2.2 z"
       id="path22"
       style="fill:#00ff00;fill-opacity:1" />
    <path
       d="m 1984.68,2023.07 c -18.59,-2.4 -45.58,-13 -62.78,-24.39 -79.17,-52.58 -90.37,-166.34 -22.99,-232.72 59.78,-58.78 153.74,-58.78 213.32,0.4 23.39,23.19 36.99,49.58 42.38,83.17 8,48.58 -7.6,96.57 -42.58,130.75 -12,11.8 -16.99,15.79 -24.79,20.19 -3.8,2 -8,4.8 -9.4,6.2 -3.6,3.2 -22.99,10.4 -37.39,13.6 -17.19,3.8 -39.79,5 -55.78,2.8 z m 59.78,-8 c 51.38,-12.8 91.97,-54.98 104.96,-108.76 3.6,-14.99 3.2,-53.58 -0.8,-68.98 -4.6,-17.79 -17.19,-42.58 -28.79,-56.98 -18.79,-23.19 -48.78,-42.38 -78.57,-50.18 -17.59,-4.8 -54.38,-4.8 -71.97,0 -51.18,13.8 -90.37,51.78 -104.96,102.16 -10.4,35.79 -6.2,75.37 11.4,109.56 12.2,23.59 38.19,49.58 61.38,60.98 36.19,18.19 69.37,21.99 107.36,12.2 z"
       id="path24"
       style="fill:#00ff00;fill-opacity:1" />
    <path
       d="m 1075.41,1868.93 c -37.99,-3.2 -74.77,-20.19 -105.76,-48.98 -22.59,-20.79 -41.39,-52.98 -50.18,-85.57 -6.4,-22.99 -6.4,-66.98 0,-89.97 17.19,-63.78 63.38,-110.76 126.55,-129.15 18.39,-5.2 61.58,-7.4 79.97,-4 70.57,13.4 124.56,61.98 143.95,129.55 6.2,21.19 6.6,72.17 0.8,93.57 -8.8,32.79 -26.59,62.58 -51.58,85.97 -39.39,36.99 -87.37,53.18 -143.75,48.58 z m 56.18,-6.6 c 52.38,-11 97.96,-46.38 121.96,-94.77 14.19,-28.39 16.99,-40.99 16.99,-77.17 0,-36.59 -2.6,-49.38 -14.99,-76.17 -28.79,-62.18 -89.97,-100.76 -159.34,-100.76 -55.38,0 -101.16,20.59 -137.55,62.18 -13.4,15.59 -29.39,46.58 -34.99,68.78 -11.8,45.58 -4.6,95.57 19.39,136.95 22.39,38.19 70.37,72.17 114.56,80.97 18.19,3.6 56.58,3.6 73.97,0 z"
       id="path26"
       style="fill:#00ff00;fill-opacity:1" />
    <path
       d="m 1561.24,1756.97 c -22.59,-1.6 -38.79,-6.2 -60.78,-16.79 -36.19,-17.39 -65.78,-46.98 -83.97,-83.77 -12.4,-25.19 -17.39,-47.58 -17.39,-78.97 -0.2,-30.99 4.8,-53.38 17.19,-78.97 24.19,-49.58 64.38,-82.17 120.36,-97.16 20.59,-5.6 61.18,-6.2 81.17,-1.2 86.97,21.59 142.15,91.17 141.95,178.34 -0.4,70.77 -39.59,132.35 -103.36,162.34 -10,4.6 -23.39,10 -29.99,11.6 -15.99,4.2 -44.18,6.2 -65.18,4.6 z m 62.58,-8.4 c 63.18,-15.99 111.56,-65.38 127.55,-130.15 4,-15.59 4.4,-21.39 3.4,-46.98 -1,-32.19 -4.2,-46.18 -16.19,-71.37 -29.19,-61.38 -89.77,-99.16 -159.14,-99.16 -82.77,0 -153.14,54.98 -172.34,134.55 -5,20.99 -5.6,57.98 -1,79.37 12.2,56.38 52.98,105.36 105.76,126.55 22.59,9 37.39,11.6 66.78,11.8 21.59,0.2 29.59,-0.6 45.18,-4.6 z"
       id="path28"
       style="fill:#00ff00;fill-opacity:1" />
    <path
       d="m 1000.24,1374.5 c -29.39,-5.4 -59.38,-18.99 -82.57,-37.59 -63.38,-51.38 -84.77,-141.95 -50.78,-216.72 27.99,-61.98 86.97,-101.96 155.74,-105.96 57.78,-3.2 113.76,21.59 150.15,66.38 48.18,59.18 53.98,143.15 14.79,209.32 -15.79,26.39 -49.98,57.38 -76.97,69.57 -35.79,16.19 -74.57,21.59 -110.36,14.99 z m 76.37,-7 c 110.76,-29.39 164.74,-149.75 113.36,-252.91 -17.39,-34.99 -42.78,-60.18 -78.97,-77.97 -89.97,-44.38 -197.53,-7 -239.91,83.37 -18.59,39.59 -21.39,89.77 -7.2,132.55 20.39,61.78 71.17,105.56 136.35,118.16 19.59,3.8 55.58,2.2 76.37,-3.2 z"
       id="path30"
       style="fill:#00ff00;fill-opacity:1" />
    <path
       d="m 1484.46,1296.53 c -7.6,-1.4 -19.79,-4.6 -26.99,-7 -13.2,-4.4 -34.39,-15.39 -35.59,-18.39 -0.4,-0.8 -1.6,-1.6 -2.8,-1.6 -3.6,0 -25.19,-17.99 -36.19,-30.19 -15.59,-17.59 -28.19,-39.79 -36.59,-64.98 -6.6,-19.59 -7.6,-24.39 -8.4,-47.98 -1.8,-52.98 13.4,-95.17 47.98,-131.75 23.99,-25.39 50.58,-41.58 84.97,-51.38 21.19,-6.2 75.97,-6.6 97.16,-0.8 65.58,17.59 111.96,63.38 130.35,127.95 22.19,77.97 -12.4,162.94 -83.37,204.73 -18.39,10.8 -31.99,15.79 -54.58,20.59 -20.99,4.4 -54.78,4.8 -75.97,0.8 z m 70.97,-3.8 c 69.18,-12.4 123.96,-64.58 141.35,-134.55 5,-20.39 4.4,-62.58 -1.2,-83.57 -16.19,-60.98 -61.78,-108.36 -121.16,-126.15 -24.19,-7.2 -65.98,-9 -91.17,-3.8 -35.79,7.2 -62.58,21.79 -89.77,48.98 -26.79,26.79 -41.78,53.78 -48.78,88.37 -3.6,17.79 -4.2,49.38 -1,66.78 11.2,63.98 57.38,117.96 116.96,137.55 27.59,9 65.78,11.6 94.77,6.4 z"
       id="path32"
       style="fill:#00ff00;fill-opacity:1" />
    <path
       d="m 466.43,1137.39 c -13.99,-4 -24.59,-21.79 -21.79,-36.39 5.6,-30.19 46.18,-37.59 61.18,-11 3.6,6.4 4.2,10.2 3.6,18.79 -1.2,13.4 -5.8,20.19 -17.59,26.39 -9.4,4.6 -14.99,5.2 -25.39,2.2 z m 24.39,-5.8 c 19.39,-9.4 20.39,-37.99 1.8,-50.18 -11.8,-7.8 -31.79,-3.2 -39.79,8.8 -9.2,13.99 -3.2,34.79 11.8,41.58 10.6,4.8 15.99,4.8 26.19,-0.2 z"
       id="path34"
       style="fill:#00ff00;fill-opacity:1" />
    <path
       d="m 2330.96,1130.99 c -7.8,-5.2 -15.79,-19.39 -15.79,-28.59 0,-3.4 2,-10 4.6,-14.79 5.2,-10 17.99,-17.99 28.19,-17.99 8.2,0 22.99,7.6 27.79,14.39 5.8,7.8 6.8,23.79 2.4,33.79 -7.4,16.39 -31.99,23.39 -47.18,13.2 z m 32.99,-3.2 c 8.6,-5.8 13.2,-13.99 13.2,-24.19 0,-22.39 -20.79,-35.79 -40.79,-26.19 -15.79,7.8 -21.39,27.19 -12.2,41.58 8,12 27.99,16.59 39.79,8.8 z"
       id="path36"
       style="fill:#00ff00;fill-opacity:1" />
  </g>
</svg>
