<?xml version="1.0" encoding="UTF-8" standalone="no"?>
<!-- Created with Inkscape (http://www.inkscape.org/) -->

<svg
   version="1.1"
   id="svg2"
   width="816"
   height="1123.2"
   viewBox="0 0 816 1123.2"
   sodipodi:docname="Panel.svg"
   inkscape:version="1.2 (dc2aedaf03, 2022-05-15)"
   xmlns:inkscape="http://www.inkscape.org/namespaces/inkscape"
   xmlns:sodipodi="http://sodipodi.sourceforge.net/DTD/sodipodi-0.dtd"
   xmlns="http://www.w3.org/2000/svg"
   xmlns:svg="http://www.w3.org/2000/svg">
  <defs
     id="defs6" />
  <sodipodi:namedview
     id="namedview4"
     pagecolor="#ffffff"
     bordercolor="#666666"
     borderopacity="1.0"
     inkscape:showpageshadow="2"
     inkscape:pageopacity="0.0"
     inkscape:pagecheckerboard="0"
     inkscape:deskcolor="#d1d1d1"
     showgrid="false"
     inkscape:zoom="0.29714602"
     inkscape:cx="395.42848"
     inkscape:cy="476.19685"
     inkscape:window-width="1920"
     inkscape:window-height="1001"
     inkscape:window-x="-9"
     inkscape:window-y="-9"
     inkscape:window-maximized="1"
     inkscape:current-layer="g8" />
  <g
     inkscape:groupmode="layer"
     inkscape:label="Image"
     id="g8">
    <path
       style="fill:none;stroke-width:0.32;stroke:#000000;stroke-opacity:1"
       d="m 114.24,1121.9612 c 0,-0.154 -1.30979,-0.5195 -2.91063,-0.8124 -1.60085,-0.2929 -4.44485,-1.0428 -6.32,-1.6666 -3.34985,-1.1142 -10.024141,-4.4114 -12.19154,-6.0228 -0.606192,-0.4507 -1.399254,-0.8194 -1.762355,-0.8194 -1.041571,0 -5.943939,-4.4371 -8.838848,-8 -2.0736,-2.5521 -3.240595,-4.3097 -4.780502,-7.2 -2.536583,-4.761 -3.518627,-8.2887 -6.235658,-22.4 -0.779417,-4.048 -1.558643,-8.008 -1.731616,-8.8 -0.172969,-0.792 -0.400627,-1.944 -0.505901,-2.56 -0.105273,-0.616 -0.394284,-2.056 -0.642243,-3.2 -0.247961,-1.144 -0.758246,-3.736 -1.133965,-5.76 -1.380697,-7.4378 -2.900761,-15.255 -3.360134,-17.28 -0.259514,-1.144 -0.684256,-3.304 -0.943866,-4.8 -0.259609,-1.496 -0.693027,-3.8 -0.963145,-5.12 -0.270122,-1.32 -0.698336,-3.552 -0.951591,-4.96 -1.135587,-6.3135 -1.443315,-7.9212 -2.235705,-11.68 -0.463773,-2.2 -1.053747,-5.224 -1.311053,-6.72 -0.257306,-1.496 -0.605587,-3.296 -0.773962,-4 -0.251219,-1.0504 -1.896915,-9.23731 -2.476505,-12.32 -1.208861,-6.42957 -4.803568,-24.81485 -5.19304,-26.56 -0.176752,-0.792 -0.62048,-3.096 -0.986064,-5.12 -0.365581,-2.024 -0.880013,-4.5801 -1.143181,-5.68022 -0.263168,-1.10016 -0.681414,-3.11616 -0.92944,-4.48 -0.248022,-1.36388 -1.022922,-5.28778 -1.722,-8.71978 -0.699075,-3.432 -1.425971,-7.104 -1.615318,-8.16 -0.189351,-1.056 -0.412941,-2.208 -0.496868,-2.56 -0.359408,-1.50739 -0.838227,-3.83328 -1.778659,-8.64 -0.550947,-2.816 -1.278899,-6.488 -1.617667,-8.16 -0.338768,-1.672 -0.693594,-3.472 -0.788502,-4 -0.09491,-0.528 -0.532109,-2.688 -0.971556,-4.8 -0.439443,-2.112 -0.999638,-4.992 -1.244873,-6.4 -0.245235,-1.408 -0.742861,-3.98224 -1.105837,-5.72051 -0.779094,-3.73107 -0.844259,-4.06512 -1.44351,-7.39949 -0.253044,-1.408 -0.615175,-3.28 -0.804736,-4.16 -0.541706,-2.51478 -2.898783,-14.24352 -3.183303,-15.84 -0.141147,-0.792 -1.10479,-5.472 -2.141429,-10.4 L 25.12,842.08 25.13358,747.52 c 0.02748,-191.39472 0.297955,-453.15327 0.474985,-459.68 0.129947,-4.79089 0.342191,-7.36304 0.739344,-8.96 0.30639,-1.232 1.046541,-4.76 1.644781,-7.84 0.598241,-3.08 1.948319,-9.848 3.000175,-15.04 1.051855,-5.192 2.505036,-12.464 3.229292,-16.16 0.724252,-3.696 1.516217,-7.656 1.759923,-8.8 0.243702,-1.144 0.742361,-3.592 1.108128,-5.44 0.365769,-1.848 1.116749,-5.52 1.668845,-8.16 0.552096,-2.64 1.192236,-5.808 1.422534,-7.04 0.785283,-4.20095 1.411974,-7.35715 2.065014,-10.4 0.358836,-1.672 0.801076,-3.832 0.982756,-4.8 0.876726,-4.67121 4.976988,-24.69735 5.569078,-27.2 0.470864,-1.99026 4.890406,-24.1767 7.362438,-36.96 0.646663,-3.344 1.447504,-7.304 1.779652,-8.8 0.332147,-1.496 1.11446,-5.456 1.738473,-8.8 1.732717,-9.28537 3.604733,-18.95328 4.802077,-24.8 0.594707,-2.904 1.313638,-6.576 1.597626,-8.16 0.283987,-1.584 0.646851,-3.384 0.806368,-4 0.307932,-1.189139 2.293174,-11.014675 3.038819,-15.04 0.244515,-1.32 1.085677,-5.496 1.869248,-9.28 0.783571,-3.784 1.886912,-9.112 2.451865,-11.84 2.281133,-11.014919 4.170068,-15.465683 9.438804,-22.24 5.346,-6.873659 14.592345,-13.2976656 23.200255,-16.1186493 L 108.96812,1.2783628 419.68406,1.3591814 730.4,1.44 l 3.25936,1.0478963 c 10.38816,3.3398135 17.65325,7.3027063 24.08246,13.1362197 1.39165,1.262736 2.74858,2.295884 3.01536,2.295884 0.61616,0 0.95908,0.53038 0.51882,0.80247 -0.20022,0.123745 0.15926,0.806824 0.89578,1.702112 0.67664,0.82248 1.68876,2.253581 2.24921,3.180225 L 765.44,25.289614 V 558.8848 c 0,355.5168 -0.10678,533.5952 -0.32,533.5952 -0.176,0 -0.32,0.1983 -0.32,0.4406 0,1.6428 -4.07926,9.4794 -4.9344,9.4794 -0.21837,0 -1.17747,0.7191 -2.13133,1.598 -0.95385,0.879 -1.91427,1.599 -2.13427,1.6 -0.22,0 -0.4,0.264 -0.4,0.5843 0,0.6007 -0.5263,1.1413 -2.70944,2.7831 -0.69821,0.525 -1.53517,1.2156 -1.8599,1.5345 -0.32477,0.3189 -1.20544,0.8435 -1.95706,1.1657 -0.75162,0.3222 -1.74784,0.9391 -2.21382,1.371 -0.46602,0.4318 -2.10282,1.3933 -3.63738,2.1365 -6.91018,3.3467 -14.44554,5.6851 -20.92662,6.4939 -3.6713,0.4582 -607.65578,0.7506 -607.65578,0.2942 z M 239.11668,965.20739 c 2.61033,-1.42073 4.08332,-3.93411 4.08332,-6.96739 0,-3.09667 -1.4712,-5.54483 -4.23861,-7.05325 -4.18176,-2.27933 -9.39892,-0.38147 -11.27149,4.10019 -0.56519,1.35271 -0.64449,4.25927 -0.15202,5.57223 0.92681,2.47097 3.30453,4.60502 5.84835,5.24905 1.57934,0.39984 4.056,0.0106 5.73045,-0.90083 z M 557.44,965.73645 c 4.23104,-0.96343 7.00256,-5.272 6.0769,-9.44704 -1.51904,-6.85107 -10.26458,-8.66314 -14.38154,-2.97984 -3.19376,4.40886 -0.87152,10.90265 4.40723,12.32403 1.86215,0.50141 2.11751,0.50816 3.89741,0.10285 z M 401.32608,941.74256 c 7.18349,-0.73146 13.34582,-2.55514 20.10733,-5.95056 17.10601,-8.59018 28.66112,-25.13958 30.89664,-44.25069 1.35641,-11.59561 -0.5137,-22.09187 -5.81805,-32.65472 -10.38448,-20.67904 -32.50739,-33.06733 -55.552,-31.10774 -8.07302,0.68649 -14.10694,2.39021 -21.35341,6.02915 -20.67904,10.38448 -33.06733,32.50739 -31.10774,55.552 0.68649,8.07302 2.39021,14.10694 6.02915,21.35341 5.56512,11.08208 14.12842,19.61251 25.232,25.13513 2.64,1.31309 6.11056,2.80906 7.71235,3.32445 7.80557,2.51136 15.88163,3.38131 23.85373,2.56957 z M 108.8,880.93645 c 4.23103,-0.96343 7.00257,-5.272 6.07689,-9.44704 -1.51902,-6.85107 -10.26456,-8.66314 -14.38152,-2.97984 -3.193776,4.40886 -0.871527,10.90265 4.40721,12.32403 1.86216,0.50141 2.11751,0.50816 3.89742,0.10285 z m 600.96,-0.32234 c 1.93379,-0.87536 3.12826,-2.0511 4.03734,-3.97411 2.4872,-5.26109 -1.39651,-11.35376 -7.23734,-11.35376 -4.4329,0 -7.98595,3.55654 -7.98595,7.99376 0,1.99459 0.83478,4.13878 2.16483,5.56048 2.14816,2.29619 6.13507,3.08003 9.02112,1.77363 z M 560.07667,818.32739 c 2.61034,-1.42073 4.08333,-3.93411 4.08333,-6.96739 0,-3.09667 -1.4712,-5.54483 -4.23862,-7.05325 -4.18829,-2.28288 -9.40813,-0.35945 -11.29776,4.16311 -0.54256,1.29856 -0.60925,4.22019 -0.12573,5.50931 0.92681,2.47097 3.30451,4.60502 5.84835,5.24905 1.57933,0.39984 4.056,0.0106 5.73043,-0.90083 z m -321.18652,0.089 c 1.836,-0.76713 3.19559,-1.99996 4.16309,-3.775 C 245.94665,809.33299 242.07683,802.88 236,802.88 c -3.13446,0 -5.51967,1.42493 -7.03305,4.20154 -2.28664,4.19529 -0.42756,9.3654 4.0706,11.32035 1.36335,0.59251 4.45088,0.60016 5.8526,0.0144 z M 607.37136,672.03021 c 18.84957,-3.75773 33.32502,-18.47837 37.00349,-37.63021 0.38957,-2.02832 0.55315,-4.48874 0.55315,-8.32 0,-3.83126 -0.16358,-6.29168 -0.55315,-8.32 -3.72295,-19.38346 -18.36407,-34.07331 -37.65485,-37.78022 -4.21437,-0.80983 -12.74563,-0.80983 -16.96,0 -19.29078,3.70691 -33.9319,18.39676 -37.65485,37.78022 -0.38957,2.02832 -0.55315,4.48874 -0.55315,8.32 0,6.06518 0.44544,9.10618 2.10301,14.35776 2.47059,7.82733 7.97392,16.15562 13.97142,21.1433 7.73984,6.43664 16.02592,9.96278 26.29357,11.18921 2.43498,0.29085 10.50816,-0.15331 13.45136,-0.74006 z m -350.9315,-28.34583 c 28.51747,-3.79529 49.78764,-28.13148 49.78764,-56.96438 0,-31.82269 -25.6048,-57.42752 -57.4275,-57.42752 -31.8227,0 -57.4275,25.60483 -57.4275,57.42752 0,26.28093 17.67627,49.10752 43.11445,55.67661 6.65791,1.71933 15.02307,2.21005 21.95291,1.28777 z M 413.28,603.1863 c 25.64019,-2.42668 45.84989,-20.57516 51.27741,-46.04761 0.78393,-3.67914 0.85629,-4.62704 0.85629,-11.21869 0,-6.59165 -0.0724,-7.53955 -0.85629,-11.21869 -3.83543,-18.00038 -15.19783,-32.73753 -31.2328,-40.50921 -15.85034,-7.68218 -34.47888,-7.68218 -50.32922,0 -16.23616,7.86918 -27.69907,22.91312 -31.36841,41.1679 -0.63591,3.16355 -0.73972,4.64554 -0.73972,10.56 0,5.91446 0.10381,7.39645 0.73972,10.56 5.49699,27.34714 28.22921,46.46093 55.89302,46.99613 1.232,0.0237 3.824,-0.10659 5.76,-0.28983 z m 193.84282,-61.56675 c 6.06134,-1.08953 12.56601,-3.7391 17.93241,-7.30441 3.93095,-2.61165 9.71946,-8.41172 12.35344,-12.37808 3.54999,-5.34573 5.95287,-10.95648 7.27434,-16.98567 0.85331,-3.89321 0.85382,-14.96733 0,-18.85843 -2.02896,-9.25606 -6.27459,-17.0113 -12.98138,-23.71229 -6.93075,-6.9248 -15.1304,-11.23408 -24.75097,-13.00781 -4.02151,-0.74144 -12.4416,-0.74144 -16.46311,0 -9.62057,1.77373 -17.82022,6.08301 -24.75097,13.00781 -6.70589,6.70013 -10.94695,14.44615 -12.98272,23.71229 -0.47485,2.16128 -0.59476,4.06182 -0.59476,9.42704 0,5.36522 0.11991,7.26576 0.59476,9.42704 2.03577,9.26614 6.27683,17.01216 12.98272,23.71229 7.85721,7.85043 16.66316,12.0336 28.50252,13.53977 2.16829,0.27588 10.11216,-0.0815 12.88282,-0.57955 z M 311.04,491.81786 c 19.7872,-1.82791 37.11485,-13.52724 46.03754,-31.08365 8.46409,-16.65408 8.46409,-35.69434 0,-52.34842 C 351.55267,397.51498 342.7089,388.69302 332,383.37005 c -5.20419,-2.58679 -8.5408,-3.79402 -13.62516,-4.92976 -8.16702,-1.82435 -16.74266,-1.82435 -24.90968,0 -10.70484,2.39126 -20.53529,7.77568 -28.21225,15.45264 -5.89331,5.89331 -11.04023,14.09209 -13.69294,21.81222 -5.09365,14.82397 -3.94576,30.96403 3.2025,45.02906 9.61642,18.92141 28.97153,30.9448 50.51753,31.38144 1.144,0.023 3.736,-0.11082 5.76,-0.29779 z m 154.56,-34.56 c 19.7872,-1.82791 37.11485,-13.52724 46.03754,-31.08365 8.46409,-16.65408 8.46409,-35.69434 0,-52.34842 -5.52487,-10.87081 -14.36864,-19.69277 -25.07754,-25.01574 -5.20419,-2.58679 -8.5408,-3.79402 -13.62515,-4.92976 -8.16704,-1.82435 -16.74266,-1.82435 -24.9097,0 -10.70483,2.39126 -20.53529,7.77568 -28.21222,15.45264 -5.89335,5.89331 -11.04026,14.09209 -13.69296,21.81222 -2.50189,7.28119 -3.6049,15.93952 -2.9625,23.25485 0.70285,8.00378 2.43434,14.19866 5.9849,21.41277 9.33821,18.97366 29.03107,31.30377 50.69763,31.74288 1.144,0.023 3.736,-0.11082 5.76,-0.29779 z m -174.72,-122.88 c 19.78719,-1.82791 37.11485,-13.52724 46.03754,-31.08366 8.46409,-16.65408 8.46409,-35.69432 0,-52.3484 -5.52487,-10.87081 -14.36864,-19.69278 -25.07754,-25.01574 -7.41219,-3.6843 -13.54056,-5.41782 -21.68,-6.13258 -5.33364,-0.46837 -11.27002,-0.0447 -16.85484,1.20281 -10.70484,2.39126 -20.53529,7.77567 -28.21225,15.45262 -5.89331,5.89332 -11.04023,14.09212 -13.69294,21.81225 -5.09365,14.82395 -3.94576,30.96402 3.2025,45.02904 9.61642,18.92142 28.97153,30.94481 50.51753,31.38145 1.144,0.023 3.736,-0.11082 5.76,-0.29779 z m 156.48,-24 c 19.7872,-1.82792 37.11485,-13.52722 46.03754,-31.08366 8.46409,-16.65408 8.46409,-35.69432 0,-52.3484 -5.52487,-10.87081 -14.36864,-19.69278 -25.07754,-25.01574 -7.41219,-3.6843 -13.54054,-5.41782 -21.68,-6.13258 -5.33363,-0.46837 -11.27002,-0.0447 -16.85485,1.20281 -10.70483,2.39126 -20.53529,7.77567 -28.21222,15.45262 -5.89335,5.89332 -11.04026,14.09212 -13.69296,21.81225 -2.50189,7.28117 -3.6049,15.93952 -2.9625,23.25484 0.70285,8.00378 2.43434,14.19865 5.9849,21.41278 9.33821,18.97366 29.03107,31.30378 50.69763,31.74288 1.144,0.0232 3.736,-0.11083 5.76,-0.2978 z M 110.89015,256.81638 c 1.836,-0.76713 3.19559,-1.99998 4.16309,-3.77499 C 117.94665,247.73299 114.07683,241.28 108,241.28 c -3.13446,0 -5.51967,1.42492 -7.03305,4.20152 -2.286643,4.19532 -0.42756,9.36543 4.0706,11.32037 1.36335,0.59253 4.45088,0.60017 5.8526,0.0145 z m 599.35999,0 c 1.836,-0.76713 3.19559,-1.99998 4.16311,-3.77499 2.89341,-5.3084 -0.97642,-11.76139 -7.05325,-11.76139 -3.13446,0 -5.51968,1.42492 -7.03306,4.20152 -2.28662,4.19532 -0.42755,9.36543 4.07063,11.32037 1.36333,0.59253 4.45085,0.60017 5.85257,0.0145 z M 29.76,940.78112 c 0,-0.3624 0.137711,-0.57379 0.306024,-0.46976 0.168314,0.10403 0.224907,0.40051 0.125764,0.65888 C 29.937956,941.63171 29.76,941.55376 29.76,940.78112 Z"
       id="path239" />
  </g>
</svg>
