<?xml version="1.0" encoding="UTF-8" standalone="no"?>
<svg
   version="1.0"
   width="735.06604"
   height="1114.9606"
   viewBox="0 0 735.06604 1114.9606"
   preserveAspectRatio="xMidYMid"
   id="svg40"
   sodipodi:docname="Panel_Shape.svg"
   inkscape:version="1.2 (dc2aedaf03, 2022-05-15)"
   xmlns:inkscape="http://www.inkscape.org/namespaces/inkscape"
   xmlns:sodipodi="http://sodipodi.sourceforge.net/DTD/sodipodi-0.dtd"
   xmlns="http://www.w3.org/2000/svg"
   xmlns:svg="http://www.w3.org/2000/svg">
  <defs
     id="defs44" />
  <sodipodi:namedview
     id="namedview42"
     pagecolor="#ffffff"
     bordercolor="#666666"
     borderopacity="1.0"
     inkscape:showpageshadow="2"
     inkscape:pageopacity="0.0"
     inkscape:pagecheckerboard="0"
     inkscape:deskcolor="#d1d1d1"
     showgrid="false"
     inkscape:zoom="0.63602554"
     inkscape:cx="938.64155"
     inkscape:cy="668.21216"
     inkscape:window-width="1920"
     inkscape:window-height="1001"
     inkscape:window-x="-9"
     inkscape:window-y="-9"
     inkscape:window-maximized="1"
     inkscape:current-layer="svg40" />
  <path
     style="fill:#00ff00;fill-opacity:1;stroke:#000000;stroke-width:0;stroke-linecap:round;stroke-linejoin:round;paint-order:stroke fill markers"
     d="M 81.359178,1109.9963 C 65.446007,1104.13 50.456859,1090.0011 47.160834,1077.7606 46.297306,1074.5537 37.141229,1028.8509 26.813997,976.19883 16.486764,923.54675 6.5387038,873.3926 4.7071946,864.74515 L 1.3771777,849.02251 1.9847731,549.50624 C 2.4464992,321.89671 3.0487085,248.29138 4.4931812,242.91477 5.5386281,239.02342 15.576544,189.85087 26.799661,133.64243 38.022778,77.433997 48.355289,27.963415 49.760797,23.707803 51.166305,19.452192 55.13935,12.907643 58.589787,9.164362 l 6.27352,-6.8059661 H 389.5667 714.27009 l 6.86844,5.6281752 c 3.77764,3.0954969 8.02632,7.8672519 9.44149,10.6039009 2.37254,4.587976 2.50672,46.024136 1.7218,531.720308 -0.73922,457.42382 -1.15396,527.46522 -3.15148,532.22022 -3.16695,7.5388 -14.02882,16.9975 -27.05212,23.5574 l -10.92346,5.5022 -301.95706,0.2906 c -253.76261,0.2442 -302.898968,-0.057 -307.858522,-1.8849 z M 212.25563,955.15032 c 4.40608,-4.40608 4.21829,-13.21997 -0.34985,-16.41962 -11.95073,-8.37061 -24.67512,7.40683 -13.5593,16.81269 4.30867,3.64586 10.03196,3.48412 13.90915,-0.39307 z m 316.52147,1.3369 c 4.58442,-2.41306 5.73986,-4.38813 5.76856,-9.86055 0.0327,-6.25242 -4.05181,-10.34351 -10.32703,-10.34351 -11.88887,0 -15.7216,16.05853 -4.8757,20.42845 4.66543,1.87974 5.47313,1.86053 9.43417,-0.22439 z M 379.70173,931.00137 c 12.17618,-3.25254 20.15674,-8.00391 27.88932,-16.60439 13.27923,-14.76969 19.06609,-33.66106 15.54024,-50.73152 -4.22866,-20.47317 -14.76692,-34.37181 -32.8256,-43.29285 -11.39309,-5.62822 -12.81176,-5.93841 -27.03663,-5.9115 -12.84713,0.0244 -16.25994,0.61625 -23.66006,4.10372 -12.80274,6.0336 -22.63534,15.56589 -28.63603,27.76145 -4.82147,9.79896 -5.16316,11.55754 -5.10072,26.25266 0.0604,14.20069 0.53879,16.75557 4.86343,25.96988 12.49134,26.61478 40.85519,39.96162 68.96605,32.45255 z m 302.54669,-61.75146 c 4.27934,-5.44029 4.1141,-9.29517 -0.60056,-14.0098 -7.20373,-7.20376 -18.15249,-2.89322 -18.15249,7.14664 0,10.29341 12.46612,14.85571 18.75305,6.86316 z M 85.171515,869.2183 c 3.582616,-3.24221 3.726923,-11.14574 0.273186,-14.96209 -3.838359,-4.24133 -13.812675,-3.87728 -16.962067,0.61912 -5.451958,7.78371 -1.056178,16.94501 8.130583,16.94501 3.125671,0 6.976904,-1.17093 8.558298,-2.60208 z M 213.11322,808.21515 c 4.71465,-4.71463 4.8799,-8.56951 0.60056,-14.00979 -6.26727,-7.96759 -18.75306,-3.86214 -18.75306,6.16612 0,10.72615 10.66267,15.33347 18.1525,7.84363 z m 319.85899,-1.96874 c 5.9863,-7.61037 1.17843,-16.8127 -8.78397,-16.8127 -6.66901,0 -10.05794,3.58245 -10.05794,10.63226 0,10.41202 12.33159,14.45695 18.84191,6.1804 z M 587.82418,658.7371 c 35.5317,-19.33877 33.004,-70.66498 -4.32183,-87.75682 -10.40785,-4.76585 -27.92914,-4.59922 -39.06989,0.37156 -15.3525,6.84999 -26.60796,22.88568 -28.22607,40.21382 -1.59133,17.04116 5.71867,33.19085 19.66634,43.44808 9.98818,7.3454 16.84665,9.28792 30.94789,8.76533 10.39364,-0.38519 14.06821,-1.26728 21.00356,-5.04197 z M 227.92539,635.87975 c 19.84922,-3.22041 36.93122,-16.10146 45.37161,-34.21342 3.52059,-7.55478 4.16073,-11.09237 4.17502,-23.07321 0.0157,-12.64578 -0.51295,-15.27058 -4.96626,-24.68566 -6.11573,-12.92977 -16.61365,-23.72017 -28.4959,-29.28988 -7.8348,-3.67249 -10.92534,-4.19823 -24.67904,-4.19823 -14.18992,0 -16.63393,0.44744 -25.07059,4.58977 -17.46862,8.57697 -29.11021,24.2073 -32.16702,43.18835 -5.12253,31.80804 15.58098,61.43214 47.29506,67.67322 3.73891,0.73579 7.15178,1.40996 7.58415,1.49818 0.43237,0.0882 5.36121,-0.58189 10.95297,-1.48912 z m 174.95062,-45.99523 c 11.53117,-5.66245 21.81349,-15.96455 27.3733,-27.42599 6.12796,-12.63264 7.03425,-31.7552 2.12521,-44.84144 -12.20314,-32.53047 -48.6113,-47.38492 -79.88715,-32.59378 -12.32562,5.82909 -21.42277,15.09323 -27.57685,28.08305 -4.44436,9.38102 -4.947,11.91416 -4.88288,24.6079 0.0832,16.45882 4.04714,27.20999 14.15944,38.40309 12.21333,13.51869 25.98075,19.14349 45.51465,18.59543 11.84198,-0.33226 15.62247,-1.1199 23.17428,-4.82826 z m 180.702,-58.62702 c 9.99319,-3.21216 20.63988,-12.99259 25.97904,-23.86523 3.65996,-7.45315 4.40614,-10.99461 4.37759,-20.77659 -0.042,-14.37458 -2.30134,-21.28388 -10.247,-31.3359 -21.38313,-27.05168 -65.11219,-22.56706 -81.36291,8.34413 -3.6868,7.01284 -4.23524,9.88645 -4.23802,22.20564 -0.003,11.66054 0.61897,15.31844 3.53277,20.78879 5.31062,9.9701 12.57929,17.49072 21.05668,21.78654 14.31559,7.25425 24.90957,7.99311 40.90185,2.85262 z M 299.2524,480.36508 c 19.68899,-9.46099 32.49043,-28.02315 33.73247,-48.91225 1.6099,-27.07625 -12.96882,-49.77784 -37.80962,-58.87608 -12.48901,-4.57425 -31.03822,-3.97721 -42.72971,1.37532 -12.00714,5.49706 -19.99179,12.03463 -25.75081,21.08392 -20.89887,32.83898 -6.43057,73.98379 30.91156,87.90597 9.09187,3.38971 32.20553,1.95953 41.64611,-2.57688 z m 154.53972,-36.17105 c 13.11985,-5.98888 21.59385,-14.09915 27.69848,-26.50959 4.79979,-9.75779 5.12508,-11.46843 5.12508,-26.95235 0,-15.82056 -0.23038,-16.95814 -5.34428,-26.38876 -19.28662,-35.5668 -67.32985,-41.57933 -94.51995,-11.82901 -10.31271,11.28374 -14.57674,22.6861 -14.57674,38.97939 0,16.42002 4.25002,27.68032 14.80741,39.23179 17.02152,18.62425 43.72305,24.00714 66.81,13.46853 z M 278.72859,323.45611 c 10.50663,-4.70331 25.20158,-19.16393 29.4058,-28.93688 12.93616,-30.07093 1.09315,-63.00644 -27.94596,-77.71786 -8.11588,-4.11158 -10.47461,-4.54574 -24.69555,-4.54574 -13.77961,0 -16.83712,0.52232 -24.74081,4.22651 -4.95999,2.32458 -12.4192,7.63097 -16.57602,11.79198 -31.15129,31.18276 -18.39113,83.62955 23.68553,97.3521 9.81547,3.20114 31.43259,2.05323 40.86701,-2.17011 z m 141.51397,-20.82785 c 19.58951,-2.83255 35.86719,-14.72149 44.64893,-32.61082 3.9599,-8.06675 4.42867,-10.68578 4.42897,-24.74427 2.7e-4,-13.72742 -0.52351,-16.82002 -4.12749,-24.37009 -6.29111,-13.17947 -14.15874,-21.16443 -27.20782,-27.61364 -10.84858,-5.36166 -12.39623,-5.68977 -26.83814,-5.68977 -14.4419,0 -15.98956,0.32811 -26.83813,5.68977 -13.04909,6.44921 -20.91671,14.43417 -27.20783,27.61364 -3.55905,7.45596 -4.1278,10.70548 -4.1278,23.58396 0,13.49832 0.47757,15.94453 4.96002,25.40563 8.17764,17.26052 23.99507,29.64263 41.60202,32.56663 4.65695,0.7734 8.82095,1.47486 9.25333,1.55882 0.43237,0.084 5.58664,-0.54147 11.45394,-1.38986 z M 85.75985,248.48916 c 4.714639,-4.71464 4.879884,-8.56952 0.60055,-14.0098 -6.286939,-7.99256 -18.753052,-3.43026 -18.753052,6.86315 0,10.03986 10.948762,14.3504 18.152502,7.14665 z m 596.87195,-0.31515 c 3.55264,-3.21509 3.78494,-11.98628 0.40692,-15.36429 -5.90851,-5.9085 -15.20491,-4.24572 -18.04635,3.22781 -2.0416,5.36985 -1.95918,5.8656 1.76164,10.59587 3.82529,4.86306 11.39494,5.59754 15.87779,1.54061 z"
     id="path3637" />
</svg>
